<mxfile host="app.diagrams.net" agent="Mozilla/5.0 (Windows NT 10.0; Win64; x64) AppleWebKit/537.36 (KHTML, like Gecko) Chrome/133.0.0.0 Safari/537.36" version="26.0.11">
  <diagram name="Página-1" id="QZDtUZY237299--5XNGP">
    <mxGraphModel dx="235" dy="593" grid="1" gridSize="10" guides="1" tooltips="1" connect="1" arrows="1" fold="1" page="1" pageScale="1" pageWidth="827" pageHeight="1169" math="0" shadow="0">
      <root>
        <mxCell id="0" />
        <mxCell id="1" parent="0" />
        <mxCell id="cQ_m3lZWKpn9HqWakuwy-78" value="" style="edgeStyle=orthogonalEdgeStyle;rounded=0;orthogonalLoop=1;jettySize=auto;html=1;" edge="1" parent="1" source="cQ_m3lZWKpn9HqWakuwy-3" target="cQ_m3lZWKpn9HqWakuwy-77">
          <mxGeometry relative="1" as="geometry" />
        </mxCell>
        <mxCell id="cQ_m3lZWKpn9HqWakuwy-82" value="" style="edgeStyle=orthogonalEdgeStyle;rounded=0;orthogonalLoop=1;jettySize=auto;html=1;" edge="1" parent="1" source="cQ_m3lZWKpn9HqWakuwy-3" target="cQ_m3lZWKpn9HqWakuwy-81">
          <mxGeometry relative="1" as="geometry" />
        </mxCell>
        <mxCell id="cQ_m3lZWKpn9HqWakuwy-84" value="" style="edgeStyle=orthogonalEdgeStyle;rounded=0;orthogonalLoop=1;jettySize=auto;html=1;" edge="1" parent="1" source="cQ_m3lZWKpn9HqWakuwy-3" target="cQ_m3lZWKpn9HqWakuwy-83">
          <mxGeometry relative="1" as="geometry" />
        </mxCell>
        <mxCell id="cQ_m3lZWKpn9HqWakuwy-3" value="Estado del vestido" style="rhombus;whiteSpace=wrap;html=1;" vertex="1" parent="1">
          <mxGeometry x="1050" y="891" width="80" height="80" as="geometry" />
        </mxCell>
        <mxCell id="cQ_m3lZWKpn9HqWakuwy-16" value="" style="edgeStyle=orthogonalEdgeStyle;rounded=0;orthogonalLoop=1;jettySize=auto;html=1;" edge="1" parent="1" source="cQ_m3lZWKpn9HqWakuwy-17" target="cQ_m3lZWKpn9HqWakuwy-20">
          <mxGeometry relative="1" as="geometry" />
        </mxCell>
        <mxCell id="cQ_m3lZWKpn9HqWakuwy-17" value="Inicio" style="ellipse;whiteSpace=wrap;html=1;" vertex="1" parent="1">
          <mxGeometry x="1170" y="30" width="120" height="80" as="geometry" />
        </mxCell>
        <mxCell id="cQ_m3lZWKpn9HqWakuwy-19" value="" style="edgeStyle=orthogonalEdgeStyle;rounded=0;orthogonalLoop=1;jettySize=auto;html=1;" edge="1" parent="1" source="cQ_m3lZWKpn9HqWakuwy-20" target="cQ_m3lZWKpn9HqWakuwy-39">
          <mxGeometry relative="1" as="geometry" />
        </mxCell>
        <mxCell id="cQ_m3lZWKpn9HqWakuwy-51" style="edgeStyle=orthogonalEdgeStyle;rounded=0;orthogonalLoop=1;jettySize=auto;html=1;entryX=0.5;entryY=0;entryDx=0;entryDy=0;" edge="1" parent="1" source="cQ_m3lZWKpn9HqWakuwy-20" target="cQ_m3lZWKpn9HqWakuwy-22">
          <mxGeometry relative="1" as="geometry" />
        </mxCell>
        <mxCell id="cQ_m3lZWKpn9HqWakuwy-20" value="Inicia sesión de cuenta" style="whiteSpace=wrap;html=1;" vertex="1" parent="1">
          <mxGeometry x="1170" y="140" width="120" height="60" as="geometry" />
        </mxCell>
        <mxCell id="cQ_m3lZWKpn9HqWakuwy-57" value="" style="edgeStyle=orthogonalEdgeStyle;rounded=0;orthogonalLoop=1;jettySize=auto;html=1;" edge="1" parent="1" source="cQ_m3lZWKpn9HqWakuwy-22" target="cQ_m3lZWKpn9HqWakuwy-56">
          <mxGeometry relative="1" as="geometry" />
        </mxCell>
        <mxCell id="cQ_m3lZWKpn9HqWakuwy-22" value="Recibe citas" style="whiteSpace=wrap;html=1;" vertex="1" parent="1">
          <mxGeometry x="900" y="240" width="120" height="60" as="geometry" />
        </mxCell>
        <mxCell id="cQ_m3lZWKpn9HqWakuwy-69" value="" style="edgeStyle=orthogonalEdgeStyle;rounded=0;orthogonalLoop=1;jettySize=auto;html=1;" edge="1" parent="1" source="cQ_m3lZWKpn9HqWakuwy-24" target="cQ_m3lZWKpn9HqWakuwy-68">
          <mxGeometry relative="1" as="geometry" />
        </mxCell>
        <mxCell id="cQ_m3lZWKpn9HqWakuwy-24" value="Agenda cita de devolución&amp;nbsp;" style="whiteSpace=wrap;html=1;" vertex="1" parent="1">
          <mxGeometry x="900" y="540" width="120" height="60" as="geometry" />
        </mxCell>
        <mxCell id="cQ_m3lZWKpn9HqWakuwy-30" value="" style="edgeStyle=orthogonalEdgeStyle;rounded=0;orthogonalLoop=1;jettySize=auto;html=1;entryX=0.5;entryY=0;entryDx=0;entryDy=0;" edge="1" parent="1" source="cQ_m3lZWKpn9HqWakuwy-31" target="cQ_m3lZWKpn9HqWakuwy-3">
          <mxGeometry relative="1" as="geometry">
            <mxPoint x="1090" y="873" as="targetPoint" />
          </mxGeometry>
        </mxCell>
        <mxCell id="cQ_m3lZWKpn9HqWakuwy-31" value="Revisa el vestido" style="whiteSpace=wrap;html=1;" vertex="1" parent="1">
          <mxGeometry x="1030" y="793" width="120" height="60" as="geometry" />
        </mxCell>
        <mxCell id="cQ_m3lZWKpn9HqWakuwy-45" value="" style="edgeStyle=orthogonalEdgeStyle;rounded=0;orthogonalLoop=1;jettySize=auto;html=1;" edge="1" parent="1" source="cQ_m3lZWKpn9HqWakuwy-39" target="cQ_m3lZWKpn9HqWakuwy-44">
          <mxGeometry relative="1" as="geometry" />
        </mxCell>
        <mxCell id="cQ_m3lZWKpn9HqWakuwy-47" value="" style="edgeStyle=orthogonalEdgeStyle;rounded=0;orthogonalLoop=1;jettySize=auto;html=1;" edge="1" parent="1" source="cQ_m3lZWKpn9HqWakuwy-39" target="cQ_m3lZWKpn9HqWakuwy-46">
          <mxGeometry relative="1" as="geometry" />
        </mxCell>
        <mxCell id="cQ_m3lZWKpn9HqWakuwy-54" style="edgeStyle=orthogonalEdgeStyle;rounded=0;orthogonalLoop=1;jettySize=auto;html=1;entryX=0.5;entryY=0;entryDx=0;entryDy=0;" edge="1" parent="1" source="cQ_m3lZWKpn9HqWakuwy-39" target="cQ_m3lZWKpn9HqWakuwy-50">
          <mxGeometry relative="1" as="geometry" />
        </mxCell>
        <mxCell id="cQ_m3lZWKpn9HqWakuwy-39" value="Crud de vestidos&amp;nbsp;" style="whiteSpace=wrap;html=1;" vertex="1" parent="1">
          <mxGeometry x="1360" y="210" width="120" height="60" as="geometry" />
        </mxCell>
        <mxCell id="cQ_m3lZWKpn9HqWakuwy-41" value="Aplicación de la boutique&amp;nbsp;" style="text;strokeColor=none;align=center;fillColor=none;html=1;verticalAlign=middle;whiteSpace=wrap;rounded=0;" vertex="1" parent="1">
          <mxGeometry x="1490" y="60" width="60" height="30" as="geometry" />
        </mxCell>
        <mxCell id="cQ_m3lZWKpn9HqWakuwy-94" value="" style="edgeStyle=orthogonalEdgeStyle;rounded=0;orthogonalLoop=1;jettySize=auto;html=1;" edge="1" parent="1" source="cQ_m3lZWKpn9HqWakuwy-44" target="cQ_m3lZWKpn9HqWakuwy-93">
          <mxGeometry relative="1" as="geometry">
            <Array as="points">
              <mxPoint x="1250" y="480" />
            </Array>
          </mxGeometry>
        </mxCell>
        <mxCell id="cQ_m3lZWKpn9HqWakuwy-44" value="Agrega vestido&amp;nbsp;" style="whiteSpace=wrap;html=1;" vertex="1" parent="1">
          <mxGeometry x="1200" y="310" width="120" height="60" as="geometry" />
        </mxCell>
        <mxCell id="cQ_m3lZWKpn9HqWakuwy-95" style="edgeStyle=orthogonalEdgeStyle;rounded=0;orthogonalLoop=1;jettySize=auto;html=1;entryX=0.5;entryY=0;entryDx=0;entryDy=0;" edge="1" parent="1" source="cQ_m3lZWKpn9HqWakuwy-46" target="cQ_m3lZWKpn9HqWakuwy-93">
          <mxGeometry relative="1" as="geometry" />
        </mxCell>
        <mxCell id="cQ_m3lZWKpn9HqWakuwy-46" value="Elimina vestidos" style="whiteSpace=wrap;html=1;" vertex="1" parent="1">
          <mxGeometry x="1360" y="310" width="120" height="60" as="geometry" />
        </mxCell>
        <mxCell id="cQ_m3lZWKpn9HqWakuwy-96" style="edgeStyle=orthogonalEdgeStyle;rounded=0;orthogonalLoop=1;jettySize=auto;html=1;entryX=1;entryY=0.5;entryDx=0;entryDy=0;" edge="1" parent="1" source="cQ_m3lZWKpn9HqWakuwy-50" target="cQ_m3lZWKpn9HqWakuwy-93">
          <mxGeometry relative="1" as="geometry">
            <Array as="points">
              <mxPoint x="1580" y="480" />
            </Array>
          </mxGeometry>
        </mxCell>
        <mxCell id="cQ_m3lZWKpn9HqWakuwy-50" value="Edita vestidos" style="rounded=0;whiteSpace=wrap;html=1;" vertex="1" parent="1">
          <mxGeometry x="1520" y="310" width="120" height="60" as="geometry" />
        </mxCell>
        <mxCell id="cQ_m3lZWKpn9HqWakuwy-59" value="" style="edgeStyle=orthogonalEdgeStyle;rounded=0;orthogonalLoop=1;jettySize=auto;html=1;" edge="1" parent="1" source="cQ_m3lZWKpn9HqWakuwy-56" target="cQ_m3lZWKpn9HqWakuwy-58">
          <mxGeometry relative="1" as="geometry" />
        </mxCell>
        <mxCell id="cQ_m3lZWKpn9HqWakuwy-56" value="Realiza cobro de renta" style="whiteSpace=wrap;html=1;" vertex="1" parent="1">
          <mxGeometry x="900" y="340" width="120" height="60" as="geometry" />
        </mxCell>
        <mxCell id="cQ_m3lZWKpn9HqWakuwy-62" style="edgeStyle=orthogonalEdgeStyle;rounded=0;orthogonalLoop=1;jettySize=auto;html=1;entryX=0.5;entryY=0;entryDx=0;entryDy=0;" edge="1" parent="1" source="cQ_m3lZWKpn9HqWakuwy-58" target="cQ_m3lZWKpn9HqWakuwy-24">
          <mxGeometry relative="1" as="geometry" />
        </mxCell>
        <mxCell id="cQ_m3lZWKpn9HqWakuwy-58" value="Realiza retencion de garantía" style="whiteSpace=wrap;html=1;" vertex="1" parent="1">
          <mxGeometry x="900" y="440" width="120" height="60" as="geometry" />
        </mxCell>
        <mxCell id="cQ_m3lZWKpn9HqWakuwy-71" value="" style="edgeStyle=orthogonalEdgeStyle;rounded=0;orthogonalLoop=1;jettySize=auto;html=1;" edge="1" parent="1" source="cQ_m3lZWKpn9HqWakuwy-68" target="cQ_m3lZWKpn9HqWakuwy-70">
          <mxGeometry relative="1" as="geometry" />
        </mxCell>
        <mxCell id="cQ_m3lZWKpn9HqWakuwy-74" style="edgeStyle=orthogonalEdgeStyle;rounded=0;orthogonalLoop=1;jettySize=auto;html=1;entryX=0.5;entryY=0;entryDx=0;entryDy=0;" edge="1" parent="1" source="cQ_m3lZWKpn9HqWakuwy-68" target="cQ_m3lZWKpn9HqWakuwy-31">
          <mxGeometry relative="1" as="geometry">
            <Array as="points">
              <mxPoint x="960" y="770" />
              <mxPoint x="1090" y="770" />
            </Array>
          </mxGeometry>
        </mxCell>
        <mxCell id="cQ_m3lZWKpn9HqWakuwy-68" value="&lt;font style=&quot;font-size: 10px;&quot;&gt;Asiste el cliente&lt;/font&gt;" style="rhombus;whiteSpace=wrap;html=1;" vertex="1" parent="1">
          <mxGeometry x="920" y="670" width="80" height="80" as="geometry" />
        </mxCell>
        <mxCell id="cQ_m3lZWKpn9HqWakuwy-70" value="Cobra la garantía&amp;nbsp;" style="whiteSpace=wrap;html=1;" vertex="1" parent="1">
          <mxGeometry x="1060" y="680" width="120" height="60" as="geometry" />
        </mxCell>
        <mxCell id="cQ_m3lZWKpn9HqWakuwy-72" value="no" style="text;html=1;align=center;verticalAlign=middle;resizable=0;points=[];autosize=1;strokeColor=none;fillColor=none;" vertex="1" parent="1">
          <mxGeometry x="1000" y="678" width="40" height="30" as="geometry" />
        </mxCell>
        <mxCell id="cQ_m3lZWKpn9HqWakuwy-75" value="si" style="text;html=1;align=center;verticalAlign=middle;resizable=0;points=[];autosize=1;strokeColor=none;fillColor=none;" vertex="1" parent="1">
          <mxGeometry x="985" y="738" width="30" height="30" as="geometry" />
        </mxCell>
        <mxCell id="cQ_m3lZWKpn9HqWakuwy-80" value="" style="edgeStyle=orthogonalEdgeStyle;rounded=0;orthogonalLoop=1;jettySize=auto;html=1;" edge="1" parent="1" source="cQ_m3lZWKpn9HqWakuwy-77" target="cQ_m3lZWKpn9HqWakuwy-79">
          <mxGeometry relative="1" as="geometry" />
        </mxCell>
        <mxCell id="cQ_m3lZWKpn9HqWakuwy-77" value="Dañado" style="whiteSpace=wrap;html=1;" vertex="1" parent="1">
          <mxGeometry x="1190" y="901" width="120" height="60" as="geometry" />
        </mxCell>
        <mxCell id="cQ_m3lZWKpn9HqWakuwy-79" value="Cobro de garantía&amp;nbsp;" style="whiteSpace=wrap;html=1;" vertex="1" parent="1">
          <mxGeometry x="1390" y="901" width="120" height="60" as="geometry" />
        </mxCell>
        <mxCell id="cQ_m3lZWKpn9HqWakuwy-81" value="Perdido" style="whiteSpace=wrap;html=1;" vertex="1" parent="1">
          <mxGeometry x="870" y="901" width="120" height="60" as="geometry" />
        </mxCell>
        <mxCell id="cQ_m3lZWKpn9HqWakuwy-86" value="" style="edgeStyle=orthogonalEdgeStyle;rounded=0;orthogonalLoop=1;jettySize=auto;html=1;" edge="1" parent="1" source="cQ_m3lZWKpn9HqWakuwy-83" target="cQ_m3lZWKpn9HqWakuwy-85">
          <mxGeometry relative="1" as="geometry" />
        </mxCell>
        <mxCell id="cQ_m3lZWKpn9HqWakuwy-83" value="Sucio&amp;nbsp;" style="whiteSpace=wrap;html=1;" vertex="1" parent="1">
          <mxGeometry x="1030" y="1010" width="120" height="60" as="geometry" />
        </mxCell>
        <mxCell id="cQ_m3lZWKpn9HqWakuwy-88" value="" style="edgeStyle=orthogonalEdgeStyle;rounded=0;orthogonalLoop=1;jettySize=auto;html=1;" edge="1" parent="1" source="cQ_m3lZWKpn9HqWakuwy-85" target="cQ_m3lZWKpn9HqWakuwy-87">
          <mxGeometry relative="1" as="geometry" />
        </mxCell>
        <mxCell id="cQ_m3lZWKpn9HqWakuwy-85" value="Pasa a tintorería&amp;nbsp;" style="whiteSpace=wrap;html=1;" vertex="1" parent="1">
          <mxGeometry x="1030" y="1220" width="120" height="60" as="geometry" />
        </mxCell>
        <mxCell id="cQ_m3lZWKpn9HqWakuwy-90" style="edgeStyle=orthogonalEdgeStyle;rounded=0;orthogonalLoop=1;jettySize=auto;html=1;entryX=0.5;entryY=0;entryDx=0;entryDy=0;" edge="1" parent="1" source="cQ_m3lZWKpn9HqWakuwy-87" target="cQ_m3lZWKpn9HqWakuwy-89">
          <mxGeometry relative="1" as="geometry" />
        </mxCell>
        <mxCell id="cQ_m3lZWKpn9HqWakuwy-87" value="Pone en disponibilidad el vestido&amp;nbsp;" style="whiteSpace=wrap;html=1;" vertex="1" parent="1">
          <mxGeometry x="1030" y="1360" width="120" height="60" as="geometry" />
        </mxCell>
        <mxCell id="cQ_m3lZWKpn9HqWakuwy-89" value="" style="ellipse;fillColor=strokeColor;html=1;" vertex="1" parent="1">
          <mxGeometry x="1075" y="1510" width="30" height="30" as="geometry" />
        </mxCell>
        <mxCell id="cQ_m3lZWKpn9HqWakuwy-98" value="" style="edgeStyle=orthogonalEdgeStyle;rounded=0;orthogonalLoop=1;jettySize=auto;html=1;" edge="1" parent="1" source="cQ_m3lZWKpn9HqWakuwy-93" target="cQ_m3lZWKpn9HqWakuwy-97">
          <mxGeometry relative="1" as="geometry" />
        </mxCell>
        <mxCell id="cQ_m3lZWKpn9HqWakuwy-93" value="Actualiza" style="whiteSpace=wrap;html=1;" vertex="1" parent="1">
          <mxGeometry x="1360" y="450" width="120" height="60" as="geometry" />
        </mxCell>
        <mxCell id="cQ_m3lZWKpn9HqWakuwy-97" value="" style="shape=waypoint;sketch=0;size=6;pointerEvents=1;points=[];fillColor=default;resizable=0;rotatable=0;perimeter=centerPerimeter;snapToPoint=1;" vertex="1" parent="1">
          <mxGeometry x="1410" y="610" width="20" height="20" as="geometry" />
        </mxCell>
      </root>
    </mxGraphModel>
  </diagram>
</mxfile>
